<?xml version="1.0" encoding="iso-8859-1"?>
<!-- Generator: Adobe Illustrator 16.0.0, SVG Export Plug-In . SVG Version: 6.00 Build 0)  -->
<!DOCTYPE svg PUBLIC "-//W3C//DTD SVG 1.1//EN" "http://www.w3.org/Graphics/SVG/1.1/DTD/svg11.dtd">
<svg version="1.1" id="Capa_1" xmlns="http://www.w3.org/2000/svg" xmlns:xlink="http://www.w3.org/1999/xlink" x="0px" y="0px"
	 width="356.902px" height="356.902px" viewBox="0 0 356.902 356.902" style="enable-background:new 0 0 356.902 356.902;"
	 xml:space="preserve">
<g>
	<g>
		<path d="M212.961,212.051c0-10.475-8.521-18.997-18.997-18.997c-0.401,0-0.798,0.017-1.192,0.041v2.406
			c0.395-0.028,0.789-0.061,1.192-0.061c9.159,0,16.61,7.452,16.61,16.611s-7.451,16.61-16.61,16.61
			c-0.269,0-0.53-0.027-0.795-0.041v0.897v1.509v4.723h-5.899v3.182h13.388v-3.182h-5.104v-4.774
			C205.288,230.163,212.961,221.989,212.961,212.051z"/>
		<g>
			<polygon points="126.261,90.111 124.628,91.813 126.818,93.626 129.02,91.813 			"/>
			<path d="M28.355,86.149l-0.191-2.01c-1.702,2.667-3.335,5.368-4.903,8.116L28.355,86.149z"/>
			<polygon points="85.188,44.188 85.188,41.406 78.729,41.406 78.368,42.736 74.436,42.736 74.436,43.073 74.436,46.628 
				83.318,46.628 			"/>
			<path d="M355.637,137.951l1.266,2.37c-0.221-1.011-0.465-2.021-0.708-3.021L355.637,137.951z"/>
			<path d="M115.06,96.577l3.37-0.633l2.701-1.714v-3.543h-6.071C115.06,91.232,115.06,96.577,115.06,96.577z"/>
			<path d="M345.54,106.069c-1.313-2.951-2.73-5.879-4.218-8.749l-1.139,1.266v7.883l3.509-0.47L345.54,106.069z"/>
			<path d="M85.031,54.982c0,0,0.326-3.904,0-3.904c-0.331,0-4.281,0.668-4.281,0.668l-6.303,1.783l1.696,1.999L85.031,54.982z"/>
			<path d="M317.155,71.208l3.544-5.223c-2.847-3.451-5.821-6.791-8.912-10.027l-0.023,8.685l-7.761,3.887l0.767,2.562
				L317.155,71.208z"/>
			<polygon points="100.095,70.981 95.825,69.97 91.103,72.207 94.019,78.109 98.62,76.657 			"/>
			<polygon points="118.099,84.999 118.099,89.234 121.822,88.339 			"/>
			<polygon points="107.52,83.437 102.343,85.557 101.333,88.113 105.388,89.234 116.181,89.234 116.181,85.557 114.612,85.557 
				114.612,83.437 			"/>
			<path d="M339.439,114.04l-4.717-5.13l-0.906-8.22l-4.822,2.603l-2.613,10.068l-6.972-7.337l-0.278-6.948l-6.739-5.728
				l-2.486-2.452h-7.808l2.463,6.89l9.411,5.176l1.627,1.726l-2.022,1.011l0.082,5.449l-4.59,1.894l-3.903-0.859l-2.44-3.422
				l6.344,0.343l1.72-2.283l-14.082-9.399l-1.068-4.008l-5.739,5.112l-5.811-1.179l-8.83,11.352l-1.73,4.461l-5.658,0.5
				l-8.365,0.047l-4.996-2.307l-1.465-9.823l1.778-4.665l8.517-1.859l9.271,1.859l1.139-5.083l-3.95-0.93L271.157,83l9.329-1.44
				l6.53-9.126l6.738-1.116l6.089,0.889h2.23l-1.231-8.563l-7.39,2.945l-2.603-6.396l-4.299-0.587l-0.79-4.386l3.509-3.776
				l8.319-3.224l2.148-3.782c-23.655-20.605-52.783-35.181-84.926-41.322c-0.738-0.127-1.453-0.261-2.19-0.389
				c-3.306-0.598-6.698-0.987-10.091-1.406c-6.663-0.726-13.42-1.145-20.298-1.145c-39.654,0-76.317,12.566-106.241,33.828
				l7.563-0.058l4.061,2.225l7.651,1.615l0.604,2.974l12.147,0.442l-1.656-3.857l-10.788-0.296l2.545-2.376l-0.889-2.812h-9.76
				l10.66-7.86h10.195l4.798,6.53l7.958,0.441l4.781-4.607l3.607,1.784l-6.605,6.378c0,0-9.15,0.146-8.697,0.146
				s0.761,6.222,0.761,6.222l11.09-0.296l1.202-2.963l7.657-0.453l0.895-4.438l-4.485-0.75l1.499-3.997l3.439-1.034l12.002,0.592
				l-6.611,5.938l1.069,4.595l6.901,1.034l-0.465-8.284l6.605-3.416l11.706-1.331l16.952,7.424v6.379l5.402,1.33l-2.713,5.031h-7.65
				l-2.26,5.786l-17.504-4.072l13.745-7.232l-5.234-4.404l-11.839,1.476l-1.057,1.063l-0.035-0.012l-0.191,0.25l-3.416,3.498
				l-5.641,0.476l0.453,2.783l1.963,0.796l-0.069,0.93l-4.595,0.639l-0.332,2.631l-4.392,0.227l-0.784-5.223l-7.877,2.365
				l-16.086,9.318l1.784,6.553l4.502,2.904l9.004,1.226v10.114l4.166-0.668l3.828-7.901l9.58-2.998V54.645l5.315-3.962l12.862,2.998
				l-0.9,8.011h3.445l9.463-4.595l0.447,10.521l6.89,4.147l-0.285,6.222l-6.605,2.23l0.453,2.057l7.936,3.579l-0.139,4.299
				l-2.312,0.198c0-0.07-0.023-0.116-0.023-0.116l-10.038-3.056l-0.418-3.189h-0.012l2.928-1.987v-2.905l-3.155-0.772l-0.773,2.678
				l-5.542,0.843l-0.552-0.192v0.273l-1.911,0.291l-1.562-3.12l-1.807-0.772h-3.939l-1.783,1.44v3.224l3.37,1.104l3.329,0.465
				l-0.749,0.331l-3.044,3.323l-1.325-1.667l-2.934-0.75l-8,7.436l1.063,0.842l-11.816,6.448l-11.113,11.427l-0.75,5.077
				l-11.125,7.232l-5.53,5.484l0.616,10.974l-7.663-3.526l0.064-6.425H78.217l-11.032,5.524l-4.781,8.72l-1.905,6.925l3.107,6.71
				l8.686,1.034l13.814-9.126l1.196,4.525l-4.211,7.872l10.521,1.76l1.046,16.04l1.319,0.227c-0.012-0.012-0.012-0.023-0.012-0.023
				l0.145,0.047l12.955,2.178l9.15-10.457l11.113,2.236l3.892,5.362l10.66-0.627l0.285-3.108l5.867,2.812l6.6,10.219l11.397,0.168
				l4.212,7.267l0.599,8.889l12.618,4.746l15.9,0.151l4.659,7.547l7.047,2.23l-1.336,6.239l-7.732,9.702l-2.248,21.471l-6.983,5.461
				l-10.34-0.303l-3.463,5.926l2.574,11.131l-11.258,14.221l-3.613,6.53l-10.725,5.112l-7.041,1.057l-0.296,2.963l4.949,1.406
				l-0.598,3.195l-4.432,4.206l2.695,3.346l5.333,0.163l-0.296,4.078l-1.417,3.996l-0.441,3.266l7.889,6.564l-1.057,3.416
				l-10.747-0.197l-10.683-9.237l-8.325-14.466l1.174-13.965l-6.304-8.319l2.545-14.059l-3.724-1.058v-30.545
				c0,0-10.515-7.877-11.113-7.877c-0.604,0-5.554-1.313-5.554-1.313l-1.046-5.774l-13.658-16.917l1.342-6.077l0.453-9.934
				l9.446-6.535l-1.33-11.119l-13.803-1.022l-10.806-12.165l-7.657-2.068l-4.95-0.906l0.604-4.45l-6.303-0.889v2.521l-15.755-3.852
				l-6.344-9.591l2.202-3.939l-2.603-0.023l-0.75-2.498l1.841-0.93l-8.075-11.647L31.58,124.38h-4.061l1.359,10.23l6.902,10.526
				l-0.75,4.166l-5.855-0.889l-7.187-12.136v-14.111l-7.505-3.573v-8.598c-3.985,9.289-7.163,19.008-9.544,29.018l2.475-0.5
				l1.464,6.959l3.097,4.938l2.056,2.33l3.724,1.441l-3.521,4.136l-6.82,0.656H2.19l0.581-6.019l4.264-0.883l-0.372-2.817
				l-3.532-2.213C1.156,157.477,0.076,168.218,0,179.215c0.523,97.98,81.284,177.511,180.525,177.511
				c56.426,0,106.886-25.76,140.022-65.96h-5.937v-11.862l-6.902-9.168v-14.291l-5.252-5.158l-0.453-5.949l6.67-12.605
				l-12.664-22.093l1.51-14.994l-11.387-1.168l-4.217-4.147h-7.657l-3.903,3.555h-13.501l-0.441,1.191h-7.529l-17.219-19.421
				l0.116-15.133l2.858-1.034l1.068-5.78h-4.043l-1.673-6.083l19.961-14.227V122.33l9.76-5.362l3.95,0.389h8.04l6.285-3.329
				l20.264-1.568v10.23l15.976,4.008l3.16,2.225h2.928v-5.554l9.214-0.883l8.771,6.448h14.408l0.998-0.906
				c-1.405-4.804-3.043-9.516-4.867-14.146L339.439,114.04z M78.264,184.153l-3.428,0.465v-7.709l1.11-1.243
				c1.464,2.812,2.84,5.664,4.148,8.557L78.264,184.153z M89.946,215.407l0.558-0.651c0.238,0.999,0.477,1.975,0.715,2.975
				L89.946,215.407z"/>
			<polygon points="100.641,99.563 103.808,101.236 111.47,90.687 105.498,90.687 101.333,95.125 			"/>
			<polygon points="122.606,94.573 122.606,97.785 124.187,100.022 129.92,100.022 129.92,96.577 123.06,94.573 			"/>
			<polygon points="115.06,99.691 112.364,99.906 111.47,103.798 117.204,103.798 119.8,101.236 119.8,97.785 115.635,98.349 			"/>
			<path d="M89.946,215.407l1.261,2.324c-0.238-1-0.477-1.977-0.715-2.975L89.946,215.407z"/>
			<path d="M74.836,176.909v7.709l3.428-0.465l1.818,0.058c-1.296-2.893-2.689-5.734-4.148-8.557L74.836,176.909z"/>
			<polygon points="95.994,181.01 96.11,181.033 95.977,180.987 			"/>
			<polygon points="40.189,150.005 42.798,150.041 43.187,149.326 41.287,146.578 39.44,147.519 			"/>
			<path d="M6.664,149.291l0.372,2.823l-4.264,0.877L2.19,159.01h5.141l6.814-0.65l3.526-4.142l-3.724-1.441l-2.062-2.329
				l-3.09-4.938l-1.464-6.96l-2.475,0.5l-0.418,0.081c-0.593,2.574-1.115,5.165-1.592,7.767l0.285,0.18L6.664,149.291z"/>
		</g>
	</g>
</g>
<g>
</g>
<g>
</g>
<g>
</g>
<g>
</g>
<g>
</g>
<g>
</g>
<g>
</g>
<g>
</g>
<g>
</g>
<g>
</g>
<g>
</g>
<g>
</g>
<g>
</g>
<g>
</g>
<g>
</g>
</svg>
